The Joneses
 
http://www.imdb.com/title/tt1285309/

Subs :

N/A

Source  :

the.joneses.2009.limited.720p.bluray.x264-machd



Info :

ID                               : 1
Format                           : AVC
Format/Info                      : Advanced Video Codec
Format profile                   : Baseline@L3.0
Format settings, CABAC           : No
Format settings, ReFrames        : 1 frame
Codec ID                         : avc1
Codec ID/Info                    : Advanced Video Coding
Duration                         : 1h 35mn
Bit rate mode                    : Variable
Bit rate                         : 390 Kbps
Width                            : 480 pixels
Height                           : 208 pixels
Display aspect ratio             : 2.35:1
Frame rate mode                  : Variable
Frame rate                       : 23.976 fps
Minimum frame rate               : 23.810 fps
Maximum frame rate               : 24.390 fps
Color space                      : YUV
Chroma subsampling               : 4:2:0
Bit depth                        : 8 bits
Scan type                        : Progressive
Bits/(Pixel*Frame)               : 0.163
Stream size                      : 267 MiB (75%)
Writing library                  : x264 core 79

ID                               : 2
Format                           : AAC
Format/Info                      : Advanced Audio Codec
Format version                   : Version 4
Format profile                   : LC
Format settings, SBR             : No
Codec ID                         : 40
Duration                         : 1h 35mn
Bit rate mode                    : Variable
Bit rate                         : 128 Kbps
Maximum bit rate                 : 199 Kbps
Channel(s)                       : 2 channels
Channel positions                : Front: L R
Sampling rate                    : 48.0 KHz
Stream size                      : 87.7 MiB (25%)
Language                         : English

Screens:
 
http://img135.imageshack.us/img135/286/thejonesesooom4vthumbs2.jpg





PLEASE LET THE TORRENT SEED AND SPREAD THE WORD ABOUT IT! 

Let me know what I can do to be your trusted source of Handheld videos.
 
http://thepiratebay.org/user/on.off.on/ -OOO